<svg width="44" height="37" viewBox="0 0 44 37" fill="none" xmlns="http://www.w3.org/2000/svg">
<path d="M40.7879 0H3.20866C2.35892 0.00406687 1.54515 0.343427 0.944287 0.944287C0.343427 1.54515 0.00406687 2.35892 0 3.20866L0 27.9567C0.00406687 28.8065 0.343427 29.6202 0.944287 30.2211C1.54515 30.822 2.35892 31.1613 3.20866 31.1654H17.2463C17.0315 32.0848 16.4609 33.5714 14.9348 35.101C14.8066 35.2291 14.7193 35.3924 14.6839 35.5701C14.6485 35.7479 14.6667 35.9321 14.736 36.0995C14.8054 36.267 14.9229 36.41 15.0736 36.5107C15.2243 36.6113 15.4015 36.665 15.5827 36.6649H28.4156C28.597 36.6654 28.7744 36.6119 28.9254 36.5114C29.0763 36.4109 29.1941 36.2678 29.2636 36.1003C29.3332 35.9328 29.3515 35.7484 29.3162 35.5705C29.2809 35.3926 29.1935 35.2292 29.0652 35.101C27.5425 33.5783 26.9565 32.0866 26.7279 31.1654H40.7896C41.6389 31.1604 42.452 30.8207 43.0524 30.22C43.6528 29.6193 43.9921 28.806 43.9966 27.9567V3.20866C43.9912 2.35934 43.6514 1.54634 43.0508 0.945768C42.4502 0.345197 41.6372 0.00540697 40.7879 0ZM40.3308 23.832H3.66581V3.66753H40.329V23.832H40.3308Z" fill="#605DBA"/>
</svg>
